<?xml version="1.0" encoding="utf-8" ?><svg xmlns="http://www.w3.org/2000/svg" xmlns:xlink="http://www.w3.org/1999/xlink" width="120" height="127" viewBox="0 0 120 127"><clipPath id="cl_4"><rect y="-7.6293945e-06" width="120" height="126.99999"/></clipPath><g clip-path="url(#cl_4)"><path fill="#A9A8A9" transform="matrix(0.314136 0 0 0.32398 -148.901 -63.176)" d="M1028.11 94.8575C1035.56 98.3901 1037.46 127.635 1037.51 135.561L1037.11 482.996L1037.42 592.428C1037.49 608.942 1038.56 641.763 1036.03 656.95C1032.77 675.991 1023.71 693.561 1010.09 707.257C977.133 740.502 954.393 734.427 911.968 734.317L807.302 734.524L448.533 737.092C419.022 737.138 397.763 727.835 376.882 707.005C370.854 700.872 367.504 696.622 362.714 689.507C401.199 711.725 407.22 712.589 451.439 712.455L501.899 712.339L675.446 712.36L861.593 712.254C890.176 712.195 924.031 715.03 951.523 710.347C996.912 702.616 1028.45 665.042 1031.46 619.729C1033.26 592.591 1032.76 568.362 1032.73 541.449L1032.29 396.432L1033.45 222.942L1033.58 152.057C1033.58 140.46 1033.85 126.95 1033.17 115.474C1032.96 112.001 1029.11 100.23 1028.11 94.8575Z"/><path fill="#044999" transform="matrix(0.314136 0 0 0.32398 -148.901 -63.176)" d="M748.374 260.363C777.847 250.778 813.17 245.217 843.047 235.843C837.447 267.027 831.171 298.811 826.47 330.055L808.32 303.094C766.354 348.861 727.418 397.985 684.957 443.487C659.628 470.63 636.42 497.364 605.298 518.486C583.745 533.114 559.536 544.493 533.08 545.811C531.172 545.906 526.761 546.072 525.147 545.735C523.976 544.187 522.84 542.614 521.738 541.016C521.383 537.528 522.557 536.555 524.523 533.303C584.682 516.079 620.763 469.103 658.649 423.172C698.65 374.677 737.914 325.597 777.079 276.421C767.872 271.306 757.301 265.746 748.374 260.363Z"/><path fill="#044999" transform="matrix(0.314136 0 0 0.32398 -148.901 -63.176)" d="M568.684 217.452C576.021 216.834 583.41 217.418 590.559 219.179C603.418 222.337 610.905 227.322 618.992 237.759C631.423 253.801 641.143 271.497 651.744 288.762L695.613 360.502C690.738 367.206 685.356 373.923 680.247 380.48C660.691 351.203 643.417 320.268 624.599 290.548C617.056 278.633 607.224 260.44 597.996 250.353C591.27 244.795 582.926 241.563 574.212 241.14C532.832 239.308 542.715 290.909 542.439 317.222C542.086 350.766 543.501 384.496 542.268 418.055C534.427 417.946 526.33 418.052 518.468 418.064C517.731 388.454 518.816 357.68 518.289 327.906C518.656 306.814 515.801 284.394 519.087 263.504C523.588 234.897 542.174 221.862 568.684 217.452Z"/><path fill="#044999" transform="matrix(0.314136 0 0 0.32398 -148.901 -63.176)" d="M801.55 327.35C804.886 331.015 802.772 351.302 802.493 356.808L795.424 359.243L803.114 362.046C803.917 383.921 803.257 409.443 803.202 431.485C803.155 449.75 804.747 488.519 801.11 505.314C798.203 518.578 790.115 530.129 778.646 537.395C766.333 545.286 748.615 548.26 734.366 545.073C705.863 538.697 691.179 507.819 676.722 485.197C674.238 481.134 673.167 479.257 671.263 474.824C675.991 469.164 682.766 462.314 687.97 457.22C699.54 475.796 709.671 495.97 724.059 512.6C738.872 529.723 774.004 523.313 777.659 499.703C780.467 481.563 779.348 462.494 779.352 444.079L779.394 352.601C786.661 344.08 794.047 335.662 801.55 327.35Z"/><path fill="#032377" transform="matrix(0.314136 0 0 0.32398 -148.901 -63.176)" d="M564.909 406.687C573.107 406.192 587.326 404.403 593.495 410.093C598.841 415.024 598.623 420.923 599.036 427.472C607.716 426.852 628.16 424.401 634.544 431.089C638.008 439.237 607.391 466.579 600.098 471.507C585.83 481.148 586.592 468.083 575.546 465.855L574.829 465.714C565.559 465.286 563.066 466.342 559.157 474.98C539.721 472.135 523.649 466.834 507.893 455.195C496.612 424.195 524.974 424.023 546.716 427.423C546.589 416.927 546.498 414.219 554.796 407.199L564.909 406.687ZM554.831 427.264L583.57 427.355C587.388 427.278 590.911 426.653 591.65 422.435C589.025 413.051 571.738 414.132 564.334 415.096C554.292 415.778 554.805 418.241 554.831 427.264Z"/><path fill="#032377" transform="matrix(0.314136 0 0 0.32398 -148.901 -63.176)" d="M582.093 297.739C585.789 297.841 588.773 298.195 591.02 301.472C598.748 312.743 605.488 324.921 612.637 336.568C627.722 360.74 642.517 385.092 657.018 409.619C652.452 415.642 646.409 422.494 641.489 428.371C637.946 423.632 634.71 418.206 631.567 413.155C622.664 398.084 613.047 383.249 603.745 368.393L603.71 405.592C594.518 398.434 591.18 397.124 579.559 396.389C579.124 375.553 578.89 354.713 578.855 333.873C578.858 325.196 577.921 304.561 582.093 297.739Z"/><path fill="#044999" transform="matrix(0.314136 0 0 0.32398 -148.901 -63.176)" d="M770.358 217.503C778.019 216.517 794.518 217.192 802.56 217.353L802.674 235.358C744.063 244.99 740.333 242.901 741.536 304.007C736.867 309.331 730.896 317.264 726.377 322.93C723.193 327.528 721.247 330.055 717.331 333.984C717.048 327.273 717.176 319.835 717.154 313.067C721.933 310.931 727.243 308.097 731.966 305.709C715.345 298.211 716.472 300.526 716.458 282.491C716.428 243.709 730.761 223.089 770.358 217.503Z"/><path fill="#032377" transform="matrix(0.314136 0 0 0.32398 -148.901 -63.176)" d="M506.606 463.746C511.811 465.632 520.357 470.456 525.936 472.917C538.248 478.347 547.128 479.808 560.112 482.079C562.86 495.149 566.971 493.899 578.853 493.673C573.146 498.596 565.903 503.373 559.602 507.452C548.244 514.096 531.403 523.972 518.154 525.01C515.651 525.206 512.642 524.942 510.746 523.111C503.474 516.092 506.508 475.632 506.606 463.746Z"/><path fill="#032377" transform="matrix(0.314136 0 0 0.32398 -148.901 -63.176)" d="M740.66 397.626C743.053 402.924 742.906 442.256 742.393 450.216C742.257 452.736 741.112 457.874 738.848 459.319C733.54 462.707 728.337 454.156 725.743 450.549C721.795 443.472 717.262 436.229 713.055 429.267C721.498 418.933 731.772 407.752 740.66 397.626Z"/><path fill="#044999" transform="matrix(0.314136 0 0 0.32398 -148.901 -63.176)" d="M694.305 278.063C697.915 282.402 698.75 293.837 701.155 297.748C704.09 302.521 717.502 304.873 722.951 305.925C704.2 308.367 699.238 312.302 695.113 330.849L694.188 331.153C692.942 328.391 690.626 318.517 689.748 315.085C682.822 309.866 676.116 308.191 667.971 305.773C688.51 300.063 689.365 298.768 694.305 278.063Z"/><path fill="#044999" transform="matrix(0.314136 0 0 0.32398 -148.901 -63.176)" d="M823.272 340C824.958 341.605 827.621 351.494 828.894 353.686C830.957 357.24 840.762 358.772 844.762 359.646C838.856 360.651 834.69 361.499 829.318 364.399C826.374 368.801 825.333 372.766 824.047 377.757C822.471 376.481 819.775 367.69 817.509 363.899C812.753 361.997 807.446 360.638 802.486 359.238C806.857 358.194 811.21 357.079 815.544 355.892C820.885 350.403 821.272 347.265 823.272 340Z"/><path fill="#032377" transform="matrix(0.314136 0 0 0.32398 -148.901 -63.176)" d="M479.948 533.898C498.068 535.91 506.75 536.65 524.523 533.303C522.557 536.555 521.383 537.528 521.738 541.016C522.84 542.614 523.976 544.187 525.147 545.735C507.936 545.422 495.308 541.088 479.948 533.898Z"/><path fill="#032377" transform="matrix(0.314136 0 0 0.32398 -148.901 -63.176)" d="M566.411 472.657C570.565 472.652 574.72 472.682 578.874 472.745C578.911 477.32 578.676 482.408 578.555 487.021L566.51 486.974L566.411 472.657Z"/></g></svg>