<?xml version="1.0" encoding="utf-8" ?><svg xmlns="http://www.w3.org/2000/svg" xmlns:xlink="http://www.w3.org/1999/xlink" width="531" height="520" viewBox="0 0 531 520"><clipPath id="cl_5"><rect x="0.00022888184" y="1.9073486e-06" width="531" height="520"/></clipPath><g clip-path="url(#cl_5)"><path fill="#FEFEFE" transform="matrix(0.728395 0 0 0.728291 -231.629 -24.7619)" d="M371.955 696.018C342.977 678.8 328.267 643.718 328.172 611.041C328.017 558.378 328.349 505.723 328.552 453.063L328.269 286.182L328.037 188.522C328.028 172.516 326.797 149.641 329.466 134.458C337.794 87.0726 380.467 52.7438 428.436 53.2771C463.456 53.6665 499.068 53.6282 534.312 53.6044L792.803 53.5563L887.975 53.509C907.63 53.4402 932.054 52.4983 951.229 55.2458C986.18 60.2538 1019.92 91.1505 1028.73 125.183C1032.62 140.204 1032.4 159.844 1032.55 175.582C1032.75 192.435 1032.77 209.289 1032.62 226.143L1032.91 355.536C1035.72 365.441 1035.58 374.296 1035.6 384.538C1035.65 412.883 1036.17 441.353 1039.01 469.56C1039.61 475.51 1037.58 483.532 1038.08 489.456C1040.89 522.72 1040.25 556.085 1040.04 589.506C1039.8 625.879 1045.77 656.089 1026.99 689.612C1014.07 712.971 992.383 730.225 966.722 737.563C947.523 742.917 931.946 740.526 912.862 740.943C894.183 741.351 876.472 741.584 857.714 741.29C829.086 740.84 800.638 739.379 772.015 738.858C737.433 738.23 702.78 738.766 668.187 738.621C656.768 738.573 645.599 737.868 634.257 737.775L519.838 737.942C474.557 738.013 423.86 742.166 385.383 714.479C376.663 708.205 376.798 704.335 371.955 696.018Z"/><path fill="#959595" transform="matrix(0.728395 0 0 0.728291 -231.629 -24.7619)" d="M1032.91 355.536C1035.72 365.441 1035.58 374.296 1035.6 384.538C1035.65 412.883 1036.17 441.353 1039.01 469.56C1039.61 475.51 1037.58 483.532 1038.08 489.456C1040.89 522.72 1040.25 556.085 1040.04 589.506C1039.8 625.879 1045.77 656.089 1026.99 689.612C1014.07 712.971 992.383 730.225 966.722 737.563C947.523 742.917 931.946 740.526 912.862 740.943C894.183 741.351 876.472 741.584 857.714 741.29C829.086 740.84 800.638 739.379 772.015 738.858C737.433 738.23 702.78 738.766 668.187 738.621C656.768 738.573 645.599 737.868 634.257 737.775L519.838 737.942C474.557 738.013 423.86 742.166 385.383 714.479C376.663 708.205 376.798 704.335 371.955 696.018C406.318 715.684 425.441 712.296 463.537 712.258L535.547 712.219L759.303 712.237L881.676 712.296C899.055 712.34 933.217 713.618 949.333 711.135C968.663 708.018 986.654 699.298 1001.08 686.054C1040.03 650.275 1032.31 601.498 1032.52 553.253L1032.66 435.02C1032.57 410.352 1031.88 379.836 1032.91 355.536Z"/><defs><linearGradient id="gradient_0" gradientUnits="userSpaceOnUse" x1="524.8689" y1="545.46564" x2="809.22986" y2="271.45584"><stop offset="0" stop-color="#000A64"/><stop offset="1" stop-color="#0067AC"/></linearGradient></defs><path fill="url(#gradient_0)" transform="matrix(0.728395 0 0 0.728291 -231.629 -24.7619)" d="M785.425 250.744C804.592 245.724 823.798 240.854 843.041 236.134C838.606 259.138 834.429 282.191 830.509 305.288L826.462 329.97C820.395 321.154 814.322 312.143 808.173 303.403C766.725 348.567 728.671 396.46 687.087 441.513C646.581 485.398 595.784 543.023 531.562 545.761C528.85 545.857 526.136 545.808 523.429 545.615C519.239 540.956 519.174 540.032 521.226 534.255C580.825 519.521 620.039 471.071 657.192 425.547C673.689 405.345 690.036 385.021 706.23 364.576C729.691 335.072 754.214 306.208 777.103 276.354L748.203 259.951C760.101 256.74 773.408 253.282 785.425 250.744Z"/><path fill="#0163A9" transform="matrix(0.728395 0 0 0.728291 -231.629 -24.7619)" d="M785.425 250.744C804.592 245.724 823.798 240.854 843.041 236.134C838.606 259.138 834.429 282.191 830.509 305.288C829.116 298.685 829.092 292.5 824.509 287.255C813.806 275.005 801.282 264.211 789.786 252.687C789.733 252.634 786.646 252.236 786.296 252.193L785.425 250.744Z"/><defs><linearGradient id="gradient_1" gradientUnits="userSpaceOnUse" x1="504.28467" y1="397.40665" x2="646.93213" y2="270.29657"><stop offset="0" stop-color="#042674"/><stop offset="1" stop-color="#004F98"/></linearGradient></defs><path fill="url(#gradient_1)" transform="matrix(0.728395 0 0 0.728291 -231.629 -24.7619)" d="M568.133 217.431C583.312 215.834 604.277 220.757 614.479 232.127C627.103 246.198 639.348 268.491 649.263 284.738L695.809 360.656C690.593 367.302 685.338 373.916 680.045 380.499C660.276 350.79 641.947 316.951 622.296 286.85C614.806 275.378 607.267 260.81 598.595 250.427C579.719 234.482 548.946 238.121 543.271 265.127C540.795 276.915 542.52 293.915 542.548 306.356L542.651 371.122C542.682 386.644 543.04 402.698 541.979 418.131L518.437 418.142L518.363 319.41C518.282 305.484 517.124 276.29 518.994 263.804C520.18 255.361 523.328 247.314 528.185 240.308C538.246 225.867 551.592 220.457 568.133 217.431Z"/><defs><linearGradient id="gradient_2" gradientUnits="userSpaceOnUse" x1="692.84918" y1="510.84088" x2="847.24304" y2="385.5083"><stop offset="0" stop-color="#002B7C"/><stop offset="1" stop-color="#0261A4"/></linearGradient></defs><path fill="url(#gradient_2)" transform="matrix(0.728395 0 0 0.728291 -231.629 -24.7619)" d="M801.859 326.734C804.609 330.037 802.825 351.269 802.569 356.51L795.383 359.216L803.069 361.955C803.919 385.014 803.068 411.482 803.228 434.867C803.336 450.679 804.542 490.669 801.565 504.632C798.707 518.15 790.555 529.96 778.929 537.424C766.27 545.479 748.699 548.33 734.184 544.781C710.963 539.102 701.683 524.737 690.028 505.992L675.871 483.45L670.655 475.112L687.928 456.968C699.431 475.59 710.217 496.166 724.017 512.889C733.921 524.892 755.384 525.281 767.143 516.14C771.936 512.414 777.238 505.659 777.997 499.491C780.083 482.538 779.235 464.977 779.205 447.887L779.091 352.966L801.859 326.734Z"/><path fill="#022A78" transform="matrix(0.728395 0 0 0.728291 -231.629 -24.7619)" d="M565.878 406.664C573.921 406.549 588.507 404.558 594.255 409.825C599.192 414.348 598.83 421.185 599.103 427.269C607.095 426.896 632.818 424.163 636.274 433.108C634.781 439.01 608.253 467.085 602.313 470.469C589.046 478.026 588.8 476.533 581.045 467.256C580.71 466.854 576.506 465.959 575.376 465.729C566.381 465.442 561.405 465.906 559.351 475.363C542.456 472.329 521.31 466.602 508.004 455.2C495.337 422.542 526.13 426.272 546.848 427.1C546.7 416.974 545.777 412.926 554.843 407.106C558.44 406.885 562.258 406.804 565.878 406.664Z"/><path fill="#FEFEFE" transform="matrix(0.728395 0 0 0.728291 -231.629 -24.7619)" d="M564.861 415.144C570.778 414.801 583.848 414.341 588.973 416.692C590.22 418.391 591.51 420.453 591.187 422.655C590.365 428.255 585.514 427.38 581.491 427.204L555.214 427.182C555.17 423.465 554.531 419.094 556.849 416.405C558.956 414.921 562.187 415.196 564.861 415.144Z"/><path fill="#022A78" transform="matrix(0.728395 0 0 0.728291 -231.629 -24.7619)" d="M582.653 297.938C589.659 297.897 590.972 300.716 594.372 306.424C614.97 341.011 636.721 374.903 657.064 409.637L641.288 428.33C638.014 423.884 634.572 417.95 631.628 413.155C622.488 398.238 613.218 383.401 603.82 368.645C603.483 380.541 603.781 393.862 603.779 405.871C594.786 397.543 591.396 397.182 579.365 396.464C579.317 367.751 579.089 338.965 579.041 310.251C579.032 304.958 578.941 301.488 582.653 297.938Z"/><path fill="#0163A9" transform="matrix(0.728395 0 0 0.728291 -231.629 -24.7619)" d="M770.263 217.534C777.149 216.683 794.847 217.212 802.604 217.276L802.625 235.181C745.291 248.008 739.826 238.528 741.551 304.01L725.917 323.905L717.336 334.827L717.26 312.918C722.263 310.703 727.297 308.21 732.238 305.831L717.229 298.653C716.413 277.693 714.702 254.459 728.915 237.377C739.967 224.096 753.7 219.242 770.263 217.534Z"/><path fill="#022A78" transform="matrix(0.728395 0 0 0.728291 -231.629 -24.7619)" d="M506.612 463.209C526.829 474.595 536.561 478.478 560.125 482.27C560.923 496.086 567.976 493.784 579.099 493.341C573.948 498.037 566.307 503.149 560.466 507.153C548.273 514.565 530.83 523.151 516.87 525.315C503.516 527.385 506.293 504.257 506.358 496.473L506.612 463.209Z"/><path fill="#022A78" transform="matrix(0.728395 0 0 0.728291 -231.629 -24.7619)" d="M740.726 397.609L741.206 398.081C743.63 404.984 741.728 433.288 742.386 442.822C743.396 457.47 738.612 471.124 726.429 451.671L713.119 429.192L740.726 397.609Z"/><path fill="#0163A9" transform="matrix(0.728395 0 0 0.728291 -231.629 -24.7619)" d="M694.409 277.436C696.497 280.935 697.902 292.622 700.983 297.155C705.128 303.254 715.032 304.503 721.903 305.926C700.523 310.225 699.578 312.285 694.804 332.995C693.176 331.198 691.227 318.059 690.151 316.309C686.204 309.89 674.019 307.433 667.405 305.874C689.057 300.61 689.974 299.432 694.409 277.436Z"/><path fill="#0163A9" transform="matrix(0.728395 0 0 0.728291 -231.629 -24.7619)" d="M823.161 339.19C824.846 340.405 826.427 350.199 827.515 351.899C830.589 356.702 839.23 358.467 844.209 359.729C828.78 362.023 826.894 364.745 823.788 379.386C822.148 376.522 822.096 371.376 818.007 364.445C812.563 361.86 808.69 360.776 802.874 359.041C818.334 356.601 820.037 353.826 823.161 339.19Z"/><path fill="#022A78" transform="matrix(0.728395 0 0 0.728291 -231.629 -24.7619)" d="M478.12 533.235C493.143 536.123 506.074 537.015 521.226 534.255C519.174 540.032 519.239 540.956 523.429 545.615C507.369 545.506 492.482 539.656 478.12 533.235Z"/><path fill="#022A78" transform="matrix(0.728395 0 0 0.728291 -231.629 -24.7619)" d="M566.536 472.661L578.822 472.63C579.004 477.455 578.903 482.359 578.864 487.191C574.799 487.195 570.507 487.049 566.423 486.975C566.308 482.226 566.451 477.414 566.536 472.661Z"/></g></svg>