<svg xmlns="http://www.w3.org/2000/svg" width="1200" height="630" viewBox="0 0 1200 630" role="img" aria-labelledby="title desc">
  <title id="title">Next Job Hunter</title>
  <desc id="desc">IA para CV, entrevistas y primer empleo.</desc>
  <defs>
    <linearGradient id="bg" x1="0" y1="0" x2="1" y2="1">
      <stop offset="0%" stop-color="#071225" />
      <stop offset="55%" stop-color="#1B49AE" />
      <stop offset="100%" stop-color="#22D3EE" />
    </linearGradient>
    <radialGradient id="glow" cx="50%" cy="45%" r="55%">
      <stop offset="0%" stop-color="#93C5FD" stop-opacity="0.7" />
      <stop offset="100%" stop-color="#93C5FD" stop-opacity="0" />
    </radialGradient>
  </defs>

  <rect width="1200" height="630" fill="url(#bg)" rx="36" />
  <rect width="1200" height="630" fill="url(#glow)" rx="36" />

  <g fill="none" stroke="rgba(255,255,255,0.14)">
    <path d="M90 515C240 445 395 438 552 484" stroke-width="2" />
    <path d="M728 155C866 105 992 111 1115 164" stroke-width="2" />
  </g>

  <g transform="translate(92 110)">
    <rect x="0" y="0" width="112" height="112" rx="28" fill="rgba(255,255,255,0.12)" stroke="rgba(255,255,255,0.22)" />
    <path d="M32 75V36h18l24 28V36h18v39H74L50 47v28H32z" fill="#FFFFFF" />
  </g>

  <text x="92" y="310" fill="#FFFFFF" font-size="76" font-weight="800" font-family="Arial, Helvetica, sans-serif">
    Next Job Hunter
  </text>
  <text x="92" y="382" fill="rgba(255,255,255,0.88)" font-size="34" font-weight="500" font-family="Arial, Helvetica, sans-serif">
    IA para crear CV, practicar entrevistas y acelerar tu primer empleo.
  </text>

  <g transform="translate(92 445)">
    <rect width="266" height="58" rx="29" fill="rgba(255,255,255,0.14)" stroke="rgba(255,255,255,0.24)" />
    <text x="30" y="37" fill="#FFFFFF" font-size="24" font-weight="700" font-family="Arial, Helvetica, sans-serif">
      CV + IA Coach + Vacantes
    </text>
  </g>
</svg>